<svg width="1226" height="1130" viewBox="0 0 1226 1130" fill="none" xmlns="http://www.w3.org/2000/svg">
<path d="M643 260.625V33.125H713C733 33.125 750.865 37.6562 766.594 46.7188C782.427 55.6771 794.771 68.4896 803.625 85.1562C812.479 101.719 816.906 120.573 816.906 141.719V152.188C816.906 173.333 812.531 192.135 803.781 208.594C795.135 225.052 782.896 237.812 767.062 246.875C751.229 255.938 733.365 260.521 713.469 260.625H643ZM689.875 71.0938V222.969H712.531C730.865 222.969 744.875 216.979 754.562 205C764.25 193.021 769.198 175.885 769.406 153.594V141.562C769.406 118.438 764.615 100.938 755.031 89.0625C745.448 77.0833 731.438 71.0938 713 71.0938H689.875ZM988 162.031H898V222.969H1003.62V260.625H851.125V33.125H1003.31V71.0938H898V125.312H988V162.031ZM1149.09 200.938C1149.09 192.083 1145.97 185.312 1139.72 180.625C1133.47 175.833 1122.22 170.833 1105.97 165.625C1089.72 160.312 1076.85 155.104 1067.38 150C1041.54 136.042 1028.62 117.24 1028.62 93.5938C1028.62 81.3021 1032.06 70.3646 1038.94 60.7812C1045.92 51.0938 1055.86 43.5417 1068.78 38.125C1081.8 32.7083 1096.39 30 1112.53 30C1128.78 30 1143.26 32.9688 1155.97 38.9062C1168.68 44.7396 1178.52 53.0208 1185.5 63.75C1192.58 74.4792 1196.12 86.6667 1196.12 100.312H1149.25C1149.25 89.8958 1145.97 81.8229 1139.41 76.0938C1132.84 70.2604 1123.62 67.3438 1111.75 67.3438C1100.29 67.3438 1091.39 69.7917 1085.03 74.6875C1078.68 79.4792 1075.5 85.8333 1075.5 93.75C1075.5 101.146 1079.2 107.344 1086.59 112.344C1094.09 117.344 1105.08 122.031 1119.56 126.406C1146.23 134.427 1165.66 144.375 1177.84 156.25C1190.03 168.125 1196.12 182.917 1196.12 200.625C1196.12 220.312 1188.68 235.781 1173.78 247.031C1158.89 258.177 1138.83 263.75 1113.62 263.75C1096.12 263.75 1080.19 260.573 1065.81 254.219C1051.44 247.76 1040.45 238.958 1032.84 227.812C1025.34 216.667 1021.59 203.75 1021.59 189.062H1068.62C1068.62 214.167 1083.62 226.719 1113.62 226.719C1124.77 226.719 1133.47 224.479 1139.72 220C1145.97 215.417 1149.09 209.062 1149.09 200.938ZM692.844 531.625H645.969V304.125H692.844V531.625ZM916.438 502.875C908 512.979 896.073 520.844 880.656 526.469C865.24 531.99 848.156 534.75 829.406 534.75C809.719 534.75 792.427 530.479 777.531 521.938C762.74 513.292 751.281 500.792 743.156 484.438C735.135 468.083 731.021 448.865 730.812 426.781V411.312C730.812 388.604 734.615 368.969 742.219 352.406C749.927 335.74 760.969 323.031 775.344 314.281C789.823 305.427 806.75 301 826.125 301C853.104 301 874.198 307.458 889.406 320.375C904.615 333.188 913.625 351.885 916.438 376.469H870.812C868.729 363.448 864.094 353.917 856.906 347.875C849.823 341.833 840.031 338.812 827.531 338.812C811.594 338.812 799.458 344.802 791.125 356.781C782.792 368.76 778.573 386.573 778.469 410.219V424.75C778.469 448.604 783 466.625 792.062 478.812C801.125 491 814.406 497.094 831.906 497.094C849.51 497.094 862.062 493.344 869.562 485.844V446.625H826.906V412.094H916.438V502.875ZM1139.56 531.625H1092.69L1001.44 381.938V531.625H954.562V304.125H1001.44L1092.84 454.125V304.125H1139.56V531.625Z" stroke="white" stroke-opacity="0.03" stroke-width="15"/>
<path d="M30 825.625V598.125H100C120 598.125 137.865 602.656 153.594 611.719C169.427 620.677 181.771 633.49 190.625 650.156C199.479 666.719 203.906 685.573 203.906 706.719V717.188C203.906 738.333 199.531 757.135 190.781 773.594C182.135 790.052 169.896 802.812 154.062 811.875C138.229 820.938 120.365 825.521 100.469 825.625H30ZM76.875 636.094V787.969H99.5312C117.865 787.969 131.875 781.979 141.562 770C151.25 758.021 156.198 740.885 156.406 718.594V706.562C156.406 683.438 151.615 665.938 142.031 654.062C132.448 642.083 118.438 636.094 100 636.094H76.875ZM375 727.031H285V787.969H390.625V825.625H238.125V598.125H390.312V636.094H285V690.312H375V727.031ZM536.094 765.938C536.094 757.083 532.969 750.312 526.719 745.625C520.469 740.833 509.219 735.833 492.969 730.625C476.719 725.312 463.854 720.104 454.375 715C428.542 701.042 415.625 682.24 415.625 658.594C415.625 646.302 419.062 635.365 425.938 625.781C432.917 616.094 442.865 608.542 455.781 603.125C468.802 597.708 483.385 595 499.531 595C515.781 595 530.26 597.969 542.969 603.906C555.677 609.74 565.521 618.021 572.5 628.75C579.583 639.479 583.125 651.667 583.125 665.312H536.25C536.25 654.896 532.969 646.823 526.406 641.094C519.844 635.26 510.625 632.344 498.75 632.344C487.292 632.344 478.385 634.792 472.031 639.688C465.677 644.479 462.5 650.833 462.5 658.75C462.5 666.146 466.198 672.344 473.594 677.344C481.094 682.344 492.083 687.031 506.562 691.406C533.229 699.427 552.656 709.375 564.844 721.25C577.031 733.125 583.125 747.917 583.125 765.625C583.125 785.312 575.677 800.781 560.781 812.031C545.885 823.177 525.833 828.75 500.625 828.75C483.125 828.75 467.188 825.573 452.812 819.219C438.438 812.76 427.448 803.958 419.844 792.812C412.344 781.667 408.594 768.75 408.594 754.062H455.625C455.625 779.167 470.625 791.719 500.625 791.719C511.771 791.719 520.469 789.479 526.719 785C532.969 780.417 536.094 774.062 536.094 765.938ZM79.8438 1096.62H32.9688V869.125H79.8438V1096.62ZM303.438 1067.88C295 1077.98 283.073 1085.84 267.656 1091.47C252.24 1096.99 235.156 1099.75 216.406 1099.75C196.719 1099.75 179.427 1095.48 164.531 1086.94C149.74 1078.29 138.281 1065.79 130.156 1049.44C122.135 1033.08 118.021 1013.86 117.812 991.781V976.312C117.812 953.604 121.615 933.969 129.219 917.406C136.927 900.74 147.969 888.031 162.344 879.281C176.823 870.427 193.75 866 213.125 866C240.104 866 261.198 872.458 276.406 885.375C291.615 898.188 300.625 916.885 303.438 941.469H257.812C255.729 928.448 251.094 918.917 243.906 912.875C236.823 906.833 227.031 903.812 214.531 903.812C198.594 903.812 186.458 909.802 178.125 921.781C169.792 933.76 165.573 951.573 165.469 975.219V989.75C165.469 1013.6 170 1031.62 179.062 1043.81C188.125 1056 201.406 1062.09 218.906 1062.09C236.51 1062.09 249.062 1058.34 256.562 1050.84V1011.62H213.906V977.094H303.438V1067.88ZM526.562 1096.62H479.688L388.438 946.938V1096.62H341.562V869.125H388.438L479.844 1019.12V869.125H526.562V1096.62Z" stroke="white" stroke-opacity="0.03" stroke-width="15"/>
<path d="M30 260.625V33.125H100C120 33.125 137.865 37.6562 153.594 46.7188C169.427 55.6771 181.771 68.4896 190.625 85.1562C199.479 101.719 203.906 120.573 203.906 141.719V152.188C203.906 173.333 199.531 192.135 190.781 208.594C182.135 225.052 169.896 237.812 154.062 246.875C138.229 255.938 120.365 260.521 100.469 260.625H30ZM76.875 71.0938V222.969H99.5312C117.865 222.969 131.875 216.979 141.562 205C151.25 193.021 156.198 175.885 156.406 153.594V141.562C156.406 118.438 151.615 100.938 142.031 89.0625C132.448 77.0833 118.438 71.0938 100 71.0938H76.875Z" fill="white" fill-opacity="0.03"/>
<path d="M375 162.031H285V222.969H390.625V260.625H238.125V33.125H390.312V71.0938H285V125.312H375V162.031Z" fill="white" fill-opacity="0.03"/>
<path d="M536.094 200.938C536.094 192.083 532.969 185.312 526.719 180.625C520.469 175.833 509.219 170.833 492.969 165.625C476.719 160.312 463.854 155.104 454.375 150C428.542 136.042 415.625 117.24 415.625 93.5938C415.625 81.3021 419.062 70.3646 425.938 60.7812C432.917 51.0938 442.865 43.5417 455.781 38.125C468.802 32.7083 483.385 30 499.531 30C515.781 30 530.26 32.9688 542.969 38.9062C555.677 44.7396 565.521 53.0208 572.5 63.75C579.583 74.4792 583.125 86.6667 583.125 100.312H536.25C536.25 89.8958 532.969 81.8229 526.406 76.0938C519.844 70.2604 510.625 67.3438 498.75 67.3438C487.292 67.3438 478.385 69.7917 472.031 74.6875C465.677 79.4792 462.5 85.8333 462.5 93.75C462.5 101.146 466.198 107.344 473.594 112.344C481.094 117.344 492.083 122.031 506.562 126.406C533.229 134.427 552.656 144.375 564.844 156.25C577.031 168.125 583.125 182.917 583.125 200.625C583.125 220.312 575.677 235.781 560.781 247.031C545.885 258.177 525.833 263.75 500.625 263.75C483.125 263.75 467.188 260.573 452.812 254.219C438.438 247.76 427.448 238.958 419.844 227.812C412.344 216.667 408.594 203.75 408.594 189.062H455.625C455.625 214.167 470.625 226.719 500.625 226.719C511.771 226.719 520.469 224.479 526.719 220C532.969 215.417 536.094 209.062 536.094 200.938Z" fill="white" fill-opacity="0.03"/>
<path d="M79.8438 531.625H32.9688V304.125H79.8438V531.625Z" fill="white" fill-opacity="0.03"/>
<path d="M303.438 502.875C295 512.979 283.073 520.844 267.656 526.469C252.24 531.99 235.156 534.75 216.406 534.75C196.719 534.75 179.427 530.479 164.531 521.938C149.74 513.292 138.281 500.792 130.156 484.438C122.135 468.083 118.021 448.865 117.812 426.781V411.312C117.812 388.604 121.615 368.969 129.219 352.406C136.927 335.74 147.969 323.031 162.344 314.281C176.823 305.427 193.75 301 213.125 301C240.104 301 261.198 307.458 276.406 320.375C291.615 333.188 300.625 351.885 303.438 376.469H257.812C255.729 363.448 251.094 353.917 243.906 347.875C236.823 341.833 227.031 338.812 214.531 338.812C198.594 338.812 186.458 344.802 178.125 356.781C169.792 368.76 165.573 386.573 165.469 410.219V424.75C165.469 448.604 170 466.625 179.062 478.812C188.125 491 201.406 497.094 218.906 497.094C236.51 497.094 249.062 493.344 256.562 485.844V446.625H213.906V412.094H303.438V502.875Z" fill="white" fill-opacity="0.03"/>
<path d="M526.562 531.625H479.688L388.438 381.938V531.625H341.562V304.125H388.438L479.844 454.125V304.125H526.562V531.625Z" fill="white" fill-opacity="0.03"/>
<path d="M643 825.625V598.125H713C733 598.125 750.865 602.656 766.594 611.719C782.427 620.677 794.771 633.49 803.625 650.156C812.479 666.719 816.906 685.573 816.906 706.719V717.188C816.906 738.333 812.531 757.135 803.781 773.594C795.135 790.052 782.896 802.812 767.062 811.875C751.229 820.938 733.365 825.521 713.469 825.625H643ZM689.875 636.094V787.969H712.531C730.865 787.969 744.875 781.979 754.562 770C764.25 758.021 769.198 740.885 769.406 718.594V706.562C769.406 683.438 764.615 665.938 755.031 654.062C745.448 642.083 731.438 636.094 713 636.094H689.875Z" fill="white" fill-opacity="0.03"/>
<path d="M988 727.031H898V787.969H1003.62V825.625H851.125V598.125H1003.31V636.094H898V690.312H988V727.031Z" fill="white" fill-opacity="0.03"/>
<path d="M1149.09 765.938C1149.09 757.083 1145.97 750.312 1139.72 745.625C1133.47 740.833 1122.22 735.833 1105.97 730.625C1089.72 725.312 1076.85 720.104 1067.38 715C1041.54 701.042 1028.62 682.24 1028.62 658.594C1028.62 646.302 1032.06 635.365 1038.94 625.781C1045.92 616.094 1055.86 608.542 1068.78 603.125C1081.8 597.708 1096.39 595 1112.53 595C1128.78 595 1143.26 597.969 1155.97 603.906C1168.68 609.74 1178.52 618.021 1185.5 628.75C1192.58 639.479 1196.12 651.667 1196.12 665.312H1149.25C1149.25 654.896 1145.97 646.823 1139.41 641.094C1132.84 635.26 1123.62 632.344 1111.75 632.344C1100.29 632.344 1091.39 634.792 1085.03 639.688C1078.68 644.479 1075.5 650.833 1075.5 658.75C1075.5 666.146 1079.2 672.344 1086.59 677.344C1094.09 682.344 1105.08 687.031 1119.56 691.406C1146.23 699.427 1165.66 709.375 1177.84 721.25C1190.03 733.125 1196.12 747.917 1196.12 765.625C1196.12 785.312 1188.68 800.781 1173.78 812.031C1158.89 823.177 1138.83 828.75 1113.62 828.75C1096.12 828.75 1080.19 825.573 1065.81 819.219C1051.44 812.76 1040.45 803.958 1032.84 792.812C1025.34 781.667 1021.59 768.75 1021.59 754.062H1068.62C1068.62 779.167 1083.62 791.719 1113.62 791.719C1124.77 791.719 1133.47 789.479 1139.72 785C1145.97 780.417 1149.09 774.062 1149.09 765.938Z" fill="white" fill-opacity="0.03"/>
<path d="M692.844 1096.62H645.969V869.125H692.844V1096.62Z" fill="white" fill-opacity="0.03"/>
<path d="M916.438 1067.88C908 1077.98 896.073 1085.84 880.656 1091.47C865.24 1096.99 848.156 1099.75 829.406 1099.75C809.719 1099.75 792.427 1095.48 777.531 1086.94C762.74 1078.29 751.281 1065.79 743.156 1049.44C735.135 1033.08 731.021 1013.86 730.812 991.781V976.312C730.812 953.604 734.615 933.969 742.219 917.406C749.927 900.74 760.969 888.031 775.344 879.281C789.823 870.427 806.75 866 826.125 866C853.104 866 874.198 872.458 889.406 885.375C904.615 898.188 913.625 916.885 916.438 941.469H870.812C868.729 928.448 864.094 918.917 856.906 912.875C849.823 906.833 840.031 903.812 827.531 903.812C811.594 903.812 799.458 909.802 791.125 921.781C782.792 933.76 778.573 951.573 778.469 975.219V989.75C778.469 1013.6 783 1031.62 792.062 1043.81C801.125 1056 814.406 1062.09 831.906 1062.09C849.51 1062.09 862.062 1058.34 869.562 1050.84V1011.62H826.906V977.094H916.438V1067.88Z" fill="white" fill-opacity="0.03"/>
<path d="M1139.56 1096.62H1092.69L1001.44 946.938V1096.62H954.562V869.125H1001.44L1092.84 1019.12V869.125H1139.56V1096.62Z" fill="white" fill-opacity="0.03"/>
</svg>
